<svg width="23" height="40" viewBox="0 0 23 40" fill="none" xmlns="http://www.w3.org/2000/svg">
<path d="M9.78906 31.0391C9.17318 31.0391 8.65039 30.8242 8.2207 30.3945C7.79102 29.9648 7.57617 29.4492 7.57617 28.8477C7.57617 28.2318 7.79102 27.709 8.2207 27.2793C8.65039 26.8496 9.17318 26.6348 9.78906 26.6348C10.3906 26.6348 10.9062 26.8496 11.3359 27.2793C11.7656 27.709 11.9805 28.2318 11.9805 28.8477C11.9805 29.4492 11.7656 29.9648 11.3359 30.3945C10.9062 30.8242 10.3906 31.0391 9.78906 31.0391ZM9.78906 27.752C9.47396 27.752 9.20898 27.8594 8.99414 28.0742C8.7793 28.2891 8.67188 28.5469 8.67188 28.8477C8.67188 29.1484 8.7793 29.4062 8.99414 29.6211C9.20898 29.8359 9.47396 29.9434 9.78906 29.9434C10.0898 29.9434 10.3477 29.8359 10.5625 29.6211C10.7773 29.4062 10.8848 29.1484 10.8848 28.8477C10.8848 28.5469 10.7773 28.2891 10.5625 28.0742C10.3477 27.8594 10.0898 27.752 9.78906 27.752ZM17.4805 31.0391C16.8789 31.0391 16.3633 30.8242 15.9336 30.3945C15.5039 29.9648 15.2891 29.4492 15.2891 28.8477C15.2891 28.2318 15.5039 27.709 15.9336 27.2793C16.3633 26.8496 16.8789 26.6348 17.4805 26.6348C18.082 26.6348 18.5977 26.8496 19.0273 27.2793C19.457 27.709 19.6719 28.2318 19.6719 28.8477C19.6719 29.4492 19.457 29.9648 19.0273 30.3945C18.5977 30.8242 18.082 31.0391 17.4805 31.0391ZM17.4805 27.752C17.1797 27.752 16.9219 27.8594 16.707 28.0742C16.4922 28.2891 16.3848 28.5469 16.3848 28.8477C16.3848 29.1484 16.4922 29.4062 16.707 29.6211C16.9219 29.8359 17.1797 29.9434 17.4805 29.9434C17.7812 29.9434 18.0391 29.8359 18.2539 29.6211C18.4688 29.4062 18.5762 29.1484 18.5762 28.8477C18.5762 28.5469 18.4688 28.2891 18.2539 28.0742C18.0391 27.8594 17.7812 27.752 17.4805 27.752ZM20.2734 13.959C20.1302 13.8014 19.9619 13.6761 19.7686 13.583C19.5752 13.4899 19.3639 13.4434 19.1348 13.4434H5.66406L5.55664 12.7773C5.48503 12.3477 5.27376 11.986 4.92285 11.6924C4.57194 11.3988 4.17448 11.252 3.73047 11.252H2.63477C2.47721 11.252 2.34473 11.3057 2.2373 11.4131C2.12988 11.5205 2.07617 11.6458 2.07617 11.7891C2.07617 11.9466 2.12988 12.0791 2.2373 12.1865C2.34473 12.2939 2.47721 12.3477 2.63477 12.3477H3.73047C3.90234 12.3477 4.0599 12.4085 4.20312 12.5303C4.34635 12.652 4.43229 12.7988 4.46094 12.9707L6.30859 23.9922C6.38021 24.4362 6.59147 24.805 6.94238 25.0986C7.29329 25.3923 7.69076 25.5391 8.13477 25.5391H19.1348C19.278 25.5391 19.4033 25.4854 19.5107 25.3779C19.6182 25.2705 19.6719 25.1452 19.6719 25.002C19.6719 24.8444 19.6182 24.7119 19.5107 24.6045C19.4033 24.4971 19.278 24.4434 19.1348 24.4434H8.13477C7.96289 24.4434 7.80176 24.3825 7.65137 24.2607C7.50098 24.139 7.41146 23.9922 7.38281 23.8203L7.125 22.1875L18.082 21.2422C18.5117 21.1992 18.8984 21.0202 19.2422 20.7051C19.5859 20.39 19.7865 20.0247 19.8438 19.6094L20.5957 15.1621C20.6243 14.9473 20.6136 14.7324 20.5635 14.5176C20.5133 14.3027 20.4167 14.1165 20.2734 13.959ZM19.5 14.9902L18.7695 19.416C18.7409 19.5879 18.6478 19.749 18.4902 19.8994C18.3327 20.0498 18.168 20.1322 17.9961 20.1465L6.93164 21.0918L5.83594 14.5391H19.1348C19.1921 14.5391 19.2493 14.5498 19.3066 14.5713C19.3639 14.5928 19.4069 14.625 19.4355 14.668C19.4642 14.7109 19.4857 14.7575 19.5 14.8076C19.5143 14.8577 19.5143 14.9186 19.5 14.9902Z" fill="#222222"/>
</svg>
