<svg version="1.2" xmlns="http://www.w3.org/2000/svg" viewBox="0 0 38 30" width="38" height="30">
	<title>Vector Smart Object-ai</title>
	<defs>
		<clipPath clipPathUnits="userSpaceOnUse" id="cp1">
			<path d="m0-0.05h38v30.14h-38z"/>
		</clipPath>
	</defs>
	<style>
		.s0 { fill: #000000 } 
	</style>
	<g id="_Artboards_">
	</g>
	<g id="Layer 1">
		<g id="&lt;Group&gt;">
			<g id="&lt;Clip Group&gt;" clip-path="url(#cp1)">
				<path id="&lt;Compound Path&gt;" fill-rule="evenodd" class="s0" d="m3.8 26.7h-1.8c-0.6 0-1.1-0.2-1.4-0.5-0.4-0.4-0.6-0.9-0.6-1.4v-18c0-0.6 0.2-1.1 0.6-1.4 0.3-0.4 0.8-0.6 1.4-0.6h3.3q0.6-1.2 1.6-2.1c1.7-1.7 4-2.7 6.6-2.7 2.6 0 4.9 1 6.6 2.7q0.9 0.9 1.6 2.1h3.3c0.5 0 1 0.2 1.4 0.6 0.3 0.3 0.5 0.8 0.5 1.4v5h5.1c0.8 0 1.6 0.3 2.3 0.8 0.7 0.6 1.2 1.4 1.4 2.2q1.1 4.1 2.1 8.1 0.1 0.4 0.2 0.7c0 0.7-0.2 1.4-0.6 2-0.4 0.5-1 0.8-1.7 1q0 0-0.1 0c-0.1 0.9-0.5 1.7-1.1 2.2-0.7 0.8-1.8 1.2-2.9 1.2-1.1 0-2.1-0.4-2.8-1.2-0.6-0.5-1-1.2-1.2-2.1h-15.9c-0.1 0.9-0.5 1.6-1.1 2.1-0.7 0.8-1.7 1.2-2.8 1.2-1.2 0-2.2-0.4-2.9-1.2-0.6-0.5-1-1.2-1.1-2.1zm7.5-9.3c-0.1 0.4-0.5 0.6-0.9 0.5-1.3-0.5-2.5-1.2-3.5-2.2-1.7-1.7-2.8-4-2.8-6.5q0-1.5 0.5-2.9h-2.6q-0.2 0-0.4 0.1-0.1 0.2-0.1 0.4v18q0 0.2 0.1 0.3 0.2 0.2 0.4 0.2h1.8c0.1-0.8 0.5-1.5 1.1-2.1 0.7-0.7 1.7-1.2 2.9-1.2 1.1 0 2.1 0.5 2.8 1.2 0.6 0.6 1 1.3 1.1 2.1h13.8v-18.5q0-0.2-0.2-0.4-0.1-0.1-0.3-0.1h-2.7q0.5 1.4 0.5 2.9c0 2.5-1 4.8-2.7 6.5-1 1-2.1 1.7-3.4 2.2-0.4 0.1-0.8-0.1-1-0.5-0.1-0.4 0.1-0.8 0.4-0.9 1.1-0.4 2.1-1 2.9-1.8 1.4-1.4 2.3-3.4 2.3-5.5 0-2.1-0.9-4.1-2.3-5.5-1.4-1.4-3.4-2.2-5.5-2.2-2.2 0-4.2 0.8-5.6 2.2-1.4 1.4-2.3 3.4-2.3 5.5 0 2.1 0.9 4.1 2.3 5.5 0.9 0.8 1.9 1.4 3 1.8 0.4 0.1 0.5 0.6 0.4 0.9zm2.2 1c-0.4 0-0.8-0.3-0.8-0.7 0-0.4 0.4-0.8 0.8-0.8 0.4 0 0.7 0.4 0.7 0.8 0 0.4-0.3 0.7-0.7 0.7zm-0.5-15.4c0.4 0 0.7 0.3 0.7 0.7v4.8h2.6c0.5 0 0.8 0.3 0.8 0.7 0 0.4-0.3 0.7-0.8 0.7h-3.3c-0.4 0-0.8-0.3-0.8-0.7v-5.5c0-0.4 0.4-0.7 0.8-0.7zm22.6 22.1q0.4-0.1 0.6-0.4 0.3-0.4 0.3-1 0-0.2-0.1-0.4l-1.1-4.3h-8.4v6.3h0.7c0.2-0.8 0.6-1.6 1.2-2.1 0.7-0.7 1.7-1.2 2.8-1.2 1.1 0 2.2 0.5 2.9 1.2 0.5 0.5 0.9 1.2 1.1 1.9zm-2.2-0.9c-0.4-0.4-1.1-0.7-1.8-0.7-0.7 0-1.3 0.3-1.8 0.7-0.4 0.5-0.7 1.1-0.7 1.8 0 0.7 0.3 1.3 0.7 1.8 0.5 0.5 1.1 0.7 1.8 0.7 0.7 0 1.4-0.2 1.8-0.7 0.5-0.5 0.8-1.1 0.8-1.8 0-0.7-0.3-1.3-0.8-1.8zm-23.8 0c-0.5-0.4-1.1-0.7-1.8-0.7-0.7 0-1.4 0.3-1.9 0.7-0.4 0.5-0.7 1.1-0.7 1.8 0 0.7 0.3 1.3 0.7 1.8 0.5 0.5 1.2 0.7 1.9 0.7 0.7 0 1.3-0.2 1.8-0.7 0.4-0.5 0.7-1.1 0.7-1.8 0-0.7-0.3-1.3-0.7-1.8zm17.3-6.6h8l-0.6-2.4c-0.2-0.6-0.5-1.1-1-1.4-0.4-0.4-0.8-0.6-1.3-0.6h-5.1z"/>
			</g>
		</g>
	</g>
</svg>