<svg width="23" height="40" viewBox="0 0 23 40" fill="none" xmlns="http://www.w3.org/2000/svg">
<g clip-path="url(#clip0_559_434)">
<path d="M11.4219 29.9434C11.3789 29.9434 11.3359 29.9362 11.293 29.9219C11.25 29.9076 11.207 29.8932 11.1641 29.8789C11.1354 29.8646 10.9743 29.7679 10.6807 29.5889C10.387 29.4098 10.0039 29.1628 9.53125 28.8477C9.05859 28.5326 8.52506 28.153 7.93066 27.709C7.33626 27.265 6.73112 26.7565 6.11523 26.1836C5.37044 25.5247 4.70801 24.8551 4.12793 24.1748C3.54785 23.4945 3.04297 22.8177 2.61328 22.1445C2.06901 21.2852 1.66081 20.4258 1.38867 19.5664C1.11654 18.707 0.980469 17.8548 0.980469 17.0098C0.980469 16.222 1.13086 15.4772 1.43164 14.7754C1.73242 14.0736 2.14421 13.4613 2.66699 12.9385C3.18978 12.4157 3.80208 12.0039 4.50391 11.7031C5.20573 11.4023 5.95768 11.252 6.75977 11.252C7.28971 11.252 7.83398 11.3486 8.39258 11.542C8.95117 11.7354 9.48112 12.0182 9.98242 12.3906C10.2689 12.6055 10.5374 12.8382 10.7881 13.0889C11.0387 13.3395 11.25 13.6009 11.4219 13.873C11.6081 13.6009 11.8265 13.3395 12.0771 13.0889C12.3278 12.8382 12.5964 12.6055 12.8828 12.3906C13.3841 12.0182 13.9105 11.7354 14.4619 11.542C15.0133 11.3486 15.5612 11.252 16.1055 11.252C16.9076 11.252 17.6559 11.4023 18.3506 11.7031C19.0452 12.0039 19.654 12.4157 20.1768 12.9385C20.6995 13.4613 21.1149 14.0736 21.4229 14.7754C21.7308 15.4772 21.8848 16.222 21.8848 17.0098C21.8848 17.8548 21.7487 18.707 21.4766 19.5664C21.2044 20.4258 20.7962 21.2852 20.252 22.1445C19.8223 22.8177 19.3138 23.4945 18.7266 24.1748C18.1393 24.8551 17.4805 25.5247 16.75 26.1836C16.1198 26.7565 15.5075 27.265 14.9131 27.709C14.3187 28.153 13.7887 28.5326 13.3232 28.8477C12.8577 29.1628 12.4782 29.4098 12.1846 29.5889C11.891 29.7679 11.7298 29.8646 11.7012 29.8789C11.6582 29.8932 11.6152 29.9076 11.5723 29.9219C11.5293 29.9362 11.4792 29.9434 11.4219 29.9434ZM6.75977 12.3477C6.11523 12.3477 5.51009 12.4694 4.94434 12.7129C4.37858 12.9564 3.88086 13.2894 3.45117 13.7119C3.02148 14.1344 2.6849 14.6286 2.44141 15.1943C2.19792 15.7601 2.07617 16.3652 2.07617 17.0098C2.07617 17.8548 2.22298 18.6712 2.5166 19.459C2.81022 20.2467 3.1862 20.9951 3.64453 21.7041C4.10286 22.4131 4.61491 23.0791 5.18066 23.7021C5.74642 24.3252 6.29427 24.8802 6.82422 25.3672C7.79818 26.2409 8.72201 26.9714 9.5957 27.5586C10.4694 28.1458 11.0781 28.5469 11.4219 28.7617C11.7799 28.5469 12.3958 28.1458 13.2695 27.5586C14.1432 26.9714 15.0599 26.2409 16.0195 25.3672C16.5638 24.8802 17.1188 24.3252 17.6846 23.7021C18.2503 23.0791 18.7624 22.4131 19.2207 21.7041C19.679 20.9951 20.055 20.2467 20.3486 19.459C20.6423 18.6712 20.7891 17.8548 20.7891 17.0098C20.7891 16.3652 20.6637 15.7601 20.4131 15.1943C20.1624 14.6286 19.8258 14.1344 19.4033 13.7119C18.9808 13.2894 18.4867 12.9564 17.9209 12.7129C17.3551 12.4694 16.75 12.3477 16.1055 12.3477C15.1745 12.3477 14.3079 12.6628 13.5059 13.293C12.7038 13.9232 12.1882 14.582 11.959 15.2695C11.916 15.3841 11.848 15.4736 11.7549 15.5381C11.6618 15.6025 11.5508 15.6348 11.4219 15.6348C11.3073 15.6348 11.2035 15.6025 11.1104 15.5381C11.0173 15.4736 10.9492 15.3841 10.9062 15.2695C10.6771 14.582 10.1615 13.9232 9.35938 13.293C8.55729 12.6628 7.69076 12.3477 6.75977 12.3477Z" fill="#222222"/>
</g>
<defs>
<clipPath id="clip0_559_434">
<rect width="22" height="38.5" fill="white" transform="matrix(1 0 0 -1 0.980469 39.2998)"/>
</clipPath>
</defs>
</svg>
