<svg width="11" height="18" viewBox="0 0 11 18" fill="none" xmlns="http://www.w3.org/2000/svg">
<path d="M3.43945 14.0444C3.4069 14.0444 3.37598 14.0379 3.34668 14.0249C3.31738 14.0119 3.28971 13.9956 3.26367 13.9761C3.21159 13.924 3.18555 13.8638 3.18555 13.7954C3.18555 13.7271 3.21159 13.6668 3.26367 13.6147L7.58984 9.29834L3.26367 4.97217C3.21159 4.92659 3.18555 4.868 3.18555 4.79639C3.18555 4.72477 3.21159 4.66618 3.26367 4.62061C3.30924 4.56852 3.36784 4.54248 3.43945 4.54248C3.51107 4.54248 3.56966 4.56852 3.61523 4.62061L8.11719 9.12256C8.16276 9.16813 8.18555 9.2251 8.18555 9.29346C8.18555 9.36182 8.16276 9.42204 8.11719 9.47412L3.61523 13.9761C3.58919 13.9956 3.56152 14.0119 3.53223 14.0249C3.50293 14.0379 3.47201 14.0444 3.43945 14.0444Z" fill="#777777"/>
</svg>
