<svg width="23" height="39" viewBox="0 0 23 39" fill="none" xmlns="http://www.w3.org/2000/svg">
<path d="M11.6895 30.5391C11.6035 30.5391 11.5247 30.5212 11.4531 30.4854C11.3815 30.4495 11.3171 30.3958 11.2598 30.3242C11.2311 30.2956 10.9017 29.8408 10.2715 28.96C9.64128 28.0791 8.94661 26.9297 8.1875 25.5117C7.72917 24.681 7.32454 23.8574 6.97363 23.041C6.62272 22.2246 6.31836 21.4297 6.06055 20.6562C5.74544 19.668 5.50553 18.7119 5.34082 17.7881C5.17611 16.8643 5.09375 15.9798 5.09375 15.1348C5.09375 14.2324 5.26562 13.3802 5.60938 12.5781C5.95312 11.776 6.42578 11.0778 7.02734 10.4834C7.62891 9.889 8.32715 9.41634 9.12207 9.06543C9.91699 8.71452 10.7728 8.53906 11.6895 8.53906C12.6061 8.53906 13.4619 8.71452 14.2568 9.06543C15.0518 9.41634 15.75 9.889 16.3516 10.4834C16.9531 11.0778 17.4258 11.776 17.7695 12.5781C18.1133 13.3802 18.2852 14.2324 18.2852 15.1348C18.2852 15.9798 18.2028 16.8643 18.0381 17.7881C17.8734 18.7119 17.6335 19.668 17.3184 20.6562C17.0605 21.4297 16.7562 22.2246 16.4053 23.041C16.0544 23.8574 15.6497 24.681 15.1914 25.5117C14.4323 26.9297 13.7376 28.0791 13.1074 28.96C12.4772 29.8408 12.1478 30.2956 12.1191 30.3242C12.0618 30.3958 11.9974 30.4495 11.9258 30.4854C11.8542 30.5212 11.7754 30.5391 11.6895 30.5391ZM11.6895 9.63477C10.9303 9.63477 10.2178 9.78158 9.55176 10.0752C8.88574 10.3688 8.30208 10.7627 7.80078 11.2568C7.29948 11.751 6.9056 12.3311 6.61914 12.9971C6.33268 13.6631 6.18945 14.3757 6.18945 15.1348C6.18945 16.0371 6.27897 16.9395 6.45801 17.8418C6.63704 18.7441 6.86979 19.6178 7.15625 20.4629C7.44271 21.3079 7.76139 22.1172 8.1123 22.8906C8.46322 23.6641 8.81055 24.3659 9.1543 24.9961C9.64128 25.9128 10.1175 26.7256 10.583 27.4346C11.0485 28.1436 11.4173 28.6914 11.6895 29.0781C11.9616 28.6914 12.3304 28.1436 12.7959 27.4346C13.2614 26.7256 13.7448 25.9056 14.2461 24.9746C14.5755 24.3444 14.9157 23.6462 15.2666 22.8799C15.6175 22.1136 15.9362 21.3044 16.2227 20.4521C16.5091 19.5999 16.7419 18.7262 16.9209 17.8311C17.0999 16.9359 17.1895 16.0371 17.1895 15.1348C17.1895 14.3757 17.0462 13.6631 16.7598 12.9971C16.4733 12.3311 16.0794 11.751 15.5781 11.2568C15.0768 10.7627 14.4932 10.3688 13.8271 10.0752C13.1611 9.78158 12.4486 9.63477 11.6895 9.63477ZM11.6895 18.4434C10.7728 18.4434 9.99219 18.1211 9.34766 17.4766C8.70312 16.832 8.38086 16.0514 8.38086 15.1348C8.38086 14.2324 8.70312 13.459 9.34766 12.8145C9.99219 12.1699 10.7728 11.8477 11.6895 11.8477C12.6061 11.8477 13.3867 12.1699 14.0312 12.8145C14.6758 13.459 14.998 14.2324 14.998 15.1348C14.998 16.0514 14.6758 16.832 14.0312 17.4766C13.3867 18.1211 12.6061 18.4434 11.6895 18.4434ZM11.6895 12.9434C11.0879 12.9434 10.5723 13.1582 10.1426 13.5879C9.71289 14.0176 9.49805 14.5332 9.49805 15.1348C9.49805 15.7507 9.71289 16.2734 10.1426 16.7031C10.5723 17.1328 11.0879 17.3477 11.6895 17.3477C12.291 17.3477 12.8066 17.1328 13.2363 16.7031C13.666 16.2734 13.8809 15.7507 13.8809 15.1348C13.8809 14.5332 13.666 14.0176 13.2363 13.5879C12.8066 13.1582 12.291 12.9434 11.6895 12.9434Z" fill="#222222"/>
</svg>
