<svg width="10" height="17" viewBox="0 0 10 17" fill="none" xmlns="http://www.w3.org/2000/svg">
<g clip-path="url(#clip0_559_451)">
<path d="M0.359375 6.73926C0.359375 6.70996 0.365234 6.68213 0.376953 6.65576C0.388672 6.62939 0.40332 6.60449 0.420898 6.58105C0.467773 6.54004 0.521973 6.51953 0.583496 6.51953C0.64502 6.51953 0.699219 6.54004 0.746094 6.58105L4.63086 10.4746L8.52441 6.58105C8.57129 6.54004 8.62549 6.51953 8.68701 6.51953C8.74854 6.51953 8.7998 6.54004 8.84082 6.58105C8.8877 6.62793 8.91113 6.68213 8.91113 6.74365C8.91113 6.80518 8.8877 6.85938 8.84082 6.90625L4.79785 10.9492C4.75098 10.9961 4.69678 11.0195 4.63525 11.0195C4.57373 11.0195 4.51953 10.9961 4.47266 10.9492L0.420898 6.90625C0.40332 6.88281 0.388672 6.85645 0.376953 6.82715C0.365234 6.79785 0.359375 6.76855 0.359375 6.73926Z" fill="#222222"/>
</g>
<defs>
<clipPath id="clip0_559_451">
<rect width="9" height="15.75" fill="white" transform="matrix(1 0 0 -1 0.359375 16.4199)"/>
</clipPath>
</defs>
</svg>
