<svg width="23" height="39" viewBox="0 0 23 39" fill="none" xmlns="http://www.w3.org/2000/svg">
<g clip-path="url(#clip0_559_472)">
<path d="M18.5449 30.5391C17.571 30.5391 16.5684 30.403 15.5371 30.1309C14.5059 29.8587 13.4531 29.4505 12.3789 28.9062C11.8919 28.6484 11.4049 28.3691 10.918 28.0684C10.431 27.7676 9.95117 27.4417 9.47852 27.0908C9.00586 26.7399 8.54036 26.3675 8.08203 25.9736C7.6237 25.5798 7.17969 25.168 6.75 24.7383C6.32031 24.3086 5.91211 23.8682 5.52539 23.417C5.13867 22.9658 4.76986 22.5003 4.41895 22.0205C4.06803 21.5407 3.73861 21.0573 3.43066 20.5703C3.12272 20.0833 2.84701 19.5964 2.60352 19.1094C2.05924 18.0352 1.65104 16.9824 1.37891 15.9512C1.10677 14.9199 0.970703 13.9173 0.970703 12.9434C0.970703 12.3132 1.18555 11.7223 1.61523 11.1709C2.04492 10.6195 2.38867 10.2292 2.64648 10C3.00456 9.65625 3.44141 9.32682 3.95703 9.01172C4.47266 8.69662 4.93815 8.53906 5.35352 8.53906C5.55404 8.53906 5.77962 8.61068 6.03027 8.75391C6.28092 8.89713 6.5638 9.11198 6.87891 9.39844C7.10807 9.61328 7.35156 9.86393 7.60938 10.1504C7.86719 10.4368 8.13216 10.752 8.4043 11.0957C8.56185 11.2962 8.91634 11.8047 9.46777 12.6211C10.0192 13.4375 10.2949 14.0964 10.2949 14.5977C10.2949 15.013 10.1016 15.3747 9.71484 15.6826C9.32812 15.9906 8.88411 16.2949 8.38281 16.5957C8.19661 16.7103 8.01042 16.8285 7.82422 16.9502C7.63802 17.0719 7.47331 17.1901 7.33008 17.3047C7.17253 17.4193 7.07227 17.5088 7.0293 17.5732C6.98633 17.6377 6.96484 17.6771 6.96484 17.6914C7.22266 18.3503 7.60221 19.027 8.10352 19.7217C8.60482 20.4163 9.17057 21.0752 9.80078 21.6982C10.431 22.3213 11.0934 22.8835 11.7881 23.3848C12.4827 23.8861 13.1523 24.2656 13.7969 24.5234C13.8112 24.5234 13.8506 24.502 13.915 24.459C13.9795 24.416 14.0762 24.3158 14.2051 24.1582C14.3197 24.015 14.4342 23.8503 14.5488 23.6641C14.6634 23.4779 14.778 23.2917 14.8926 23.1055C15.2077 22.6185 15.5192 22.1781 15.8271 21.7842C16.1351 21.3903 16.4896 21.1934 16.8906 21.1934C17.3919 21.1934 18.0508 21.4691 18.8672 22.0205C19.6836 22.5719 20.1921 22.9336 20.3926 23.1055C20.7363 23.3633 21.0514 23.6211 21.3379 23.8789C21.6243 24.1367 21.875 24.3802 22.0898 24.6094C22.3906 24.9245 22.609 25.2074 22.7451 25.458C22.8812 25.7087 22.9492 25.9342 22.9492 26.1348C22.9492 26.5501 22.7917 27.0156 22.4766 27.5312C22.1615 28.0469 21.832 28.4837 21.4883 28.8418C21.2591 29.0996 20.8688 29.4469 20.3174 29.8838C19.766 30.3206 19.1751 30.5391 18.5449 30.5391ZM5.33203 9.63477C5.1888 9.64909 4.93815 9.74935 4.58008 9.93555C4.22201 10.1217 3.82812 10.4082 3.39844 10.7949C2.98307 11.1816 2.65723 11.5648 2.4209 11.9443C2.18457 12.3239 2.06641 12.6569 2.06641 12.9434C2.06641 14.791 2.57845 16.6888 3.60254 18.6367C4.62663 20.5846 5.93717 22.3607 7.53418 23.9648C9.13118 25.569 10.9036 26.8831 12.8516 27.9072C14.7995 28.9313 16.6973 29.4434 18.5449 29.4434C18.8314 29.4434 19.1644 29.3252 19.5439 29.0889C19.9235 28.8525 20.3066 28.5267 20.6934 28.1113C21.0801 27.6816 21.3701 27.2842 21.5635 26.9189C21.7568 26.5537 21.8535 26.2995 21.8535 26.1562C21.8392 26.0417 21.6673 25.791 21.3379 25.4043C21.0085 25.0176 20.4499 24.5163 19.6621 23.9004C18.9746 23.3848 18.3802 22.9873 17.8789 22.708C17.3776 22.4287 17.0553 22.2891 16.9121 22.2891C16.8978 22.2891 16.8584 22.3105 16.7939 22.3535C16.7295 22.3965 16.6328 22.4967 16.5039 22.6543C16.4036 22.7975 16.2962 22.9587 16.1816 23.1377C16.0671 23.3167 15.9525 23.4993 15.8379 23.6855C15.5371 24.1868 15.2256 24.638 14.9033 25.0391C14.5811 25.4401 14.2122 25.6406 13.7969 25.6406C13.7253 25.6406 13.6572 25.6335 13.5928 25.6191C13.5283 25.6048 13.4603 25.5833 13.3887 25.5547C12.6725 25.2682 11.9349 24.8529 11.1758 24.3086C10.4167 23.7643 9.69694 23.152 9.0166 22.4717C8.33626 21.7913 7.72396 21.0716 7.17969 20.3125C6.63542 19.5534 6.22005 18.8158 5.93359 18.0996C5.86198 17.9277 5.84766 17.7093 5.89062 17.4443C5.93359 17.1794 6.12695 16.8965 6.4707 16.5957C6.64258 16.4238 6.84668 16.2627 7.08301 16.1123C7.31934 15.9619 7.55924 15.8079 7.80273 15.6504C7.98893 15.5358 8.17155 15.4212 8.35059 15.3066C8.52962 15.1921 8.69076 15.0846 8.83398 14.9844C8.99154 14.8555 9.0918 14.7588 9.13477 14.6943C9.17773 14.6299 9.19922 14.5977 9.19922 14.5977C9.19922 14.4544 9.05957 14.1286 8.78027 13.6201C8.50098 13.1117 8.10352 12.5208 7.58789 11.8477C6.97201 11.0456 6.4707 10.4834 6.08398 10.1611C5.69727 9.83887 5.44661 9.66341 5.33203 9.63477Z" fill="#222222"/>
</g>
<defs>
<clipPath id="clip0_559_472">
<rect width="22" height="38.5" fill="white" transform="matrix(1 0 0 -1 0.949219 38.7998)"/>
</clipPath>
</defs>
</svg>
