<svg version="1.2" xmlns="http://www.w3.org/2000/svg" viewBox="0 0 38 33" width="38" height="33">
	<title>Vector Smart Object-ai</title>
	<defs>
		<clipPath clipPathUnits="userSpaceOnUse" id="cp1">
			<path d="m0-0.09h38v33.14h-38z"/>
		</clipPath>
	</defs>
	<style>
		.s0 { fill: #000000 } 
	</style>
	<g id="_Artboards_">
	</g>
	<g id="Layer 1">
		<g id="&lt;Group&gt;">
			<g id="&lt;Clip Group&gt;" clip-path="url(#cp1)">
				<path id="&lt;Compound Path&gt;" fill-rule="evenodd" class="s0" d="m3.6 17q-0.2 0.2-0.5 0.2c-0.3 0-0.5-0.1-0.6-0.3l-2.3-2.7c-0.3-0.3-0.2-0.8 0.1-1 0.3-0.3 0.7-0.3 1 0.1l1.1 1.3c0.5-3.8 2.2-7.2 4.8-9.8 3-3 7.2-4.8 11.8-4.8 3.9 0 7.5 1.4 10.4 3.6 2.9 2.3 5 5.6 5.8 9.3 0.1 0.4-0.1 0.8-0.5 0.9-0.4 0.1-0.8-0.2-0.9-0.5-0.8-3.5-2.7-6.4-5.3-8.5-2.6-2.1-5.9-3.3-9.5-3.3-4.2 0-8 1.7-10.7 4.4-2.4 2.3-4 5.4-4.4 8.9l1.5-1.2c0.3-0.3 0.8-0.2 1 0.1 0.3 0.3 0.3 0.8-0.1 1zm22.2-2l0.8-2.5h-3.8c-0.5 0-0.8-0.3-0.8-0.7 0-0.4 0.3-0.7 0.8-0.7h4.8c0.4 0 0.8 0.3 0.8 0.7q0 0.1-0.1 0.3l-2.6 7.9c-0.1 0.3-0.4 0.5-0.7 0.5h-9.4l0.4 1.3h9c0.7 0 1.4 0.3 1.9 0.8 0.5 0.5 0.8 1.2 0.8 1.9 0 0.7-0.3 1.4-0.8 1.9-0.5 0.5-1.1 0.8-1.9 0.8-0.7 0-1.4-0.3-1.9-0.8-0.5-0.5-0.8-1.2-0.8-1.9q0-0.7 0.3-1.2h-5.2q0.3 0.5 0.3 1.2c0 0.7-0.3 1.4-0.8 1.9-0.5 0.5-1.1 0.8-1.9 0.8-0.7 0-1.4-0.3-1.9-0.8-0.5-0.5-0.8-1.2-0.8-1.9 0-0.7 0.3-1.4 0.8-1.9 0.4-0.4 0.8-0.6 1.4-0.7q-2-6.1-4-12.1h-2.3c-0.4 0-0.7-0.4-0.7-0.8 0-0.4 0.3-0.7 0.7-0.7h2.8c0.3 0 0.6 0.2 0.7 0.5l0.8 2.3h4.3c0.4 0 0.8 0.3 0.8 0.7 0 0.4-0.4 0.7-0.8 0.7h-3.9l0.9 2.5zm5.7 4.3c-0.2-0.3-0.2-0.8 0.1-1l2.8-2.3q0.2-0.2 0.5-0.2c0.2 0 0.4 0.1 0.6 0.3l2.3 2.7c0.2 0.3 0.2 0.8-0.1 1-0.3 0.3-0.8 0.2-1.1-0.1l-1.1-1.3c-0.4 3.8-2.2 7.2-4.8 9.8-3 2.9-7.1 4.8-11.7 4.8-4 0-7.6-1.4-10.4-3.6-2.9-2.4-5.1-5.6-5.9-9.4-0.1-0.4 0.2-0.7 0.6-0.8 0.4-0.1 0.8 0.1 0.9 0.5 0.7 3.4 2.6 6.4 5.3 8.5 2.6 2.1 5.9 3.3 9.5 3.3 4.2 0 8-1.7 10.7-4.4 2.4-2.3 4-5.5 4.3-8.9l-1.4 1.2c-0.3 0.2-0.8 0.2-1.1-0.1zm-11.8-6.8c-0.4 0-0.7-0.3-0.7-0.7 0-0.4 0.3-0.7 0.7-0.7 0.4 0 0.8 0.3 0.8 0.7 0 0.4-0.4 0.7-0.8 0.7zm5.2 10.8q-0.5 0-0.8 0.3c-0.2 0.3-0.4 0.6-0.4 0.9 0 0.3 0.2 0.6 0.4 0.9 0.2 0.2 0.5 0.3 0.9 0.3 0.3 0 0.6-0.1 0.8-0.3 0.2-0.3 0.4-0.6 0.4-0.9 0-0.3-0.2-0.6-0.4-0.9-0.2-0.2-0.5-0.3-0.8-0.3q-0.1 0-0.1 0zm-9.9 0c-0.4 0-0.7 0.1-0.9 0.3-0.2 0.3-0.4 0.6-0.4 0.9 0 0.3 0.2 0.6 0.4 0.9 0.2 0.2 0.5 0.3 0.9 0.3 0.3 0 0.6-0.1 0.8-0.3 0.2-0.3 0.4-0.6 0.4-0.9 0-0.3-0.2-0.6-0.4-0.9-0.2-0.2-0.5-0.3-0.8-0.3zm10.3-6.8h-11.1l0.8 2.6h9.4z"/>
			</g>
		</g>
	</g>
</svg>