<svg width="19" height="22" viewBox="0 0 19 22" fill="none" xmlns="http://www.w3.org/2000/svg">
<g clip-path="url(#clip0_559_424)">
<path d="M17.3105 19.2803L11.9668 13.4443C12.5645 12.8232 13.0244 12.1113 13.3467 11.3086C13.6689 10.5059 13.8301 9.66504 13.8301 8.78613C13.8301 7.88379 13.6602 7.02246 13.3203 6.20215C12.9805 5.38184 12.4941 4.65527 11.8613 4.02246C11.2168 3.37793 10.4844 2.88574 9.66406 2.5459C8.84375 2.20605 7.98242 2.03613 7.08008 2.03613C6.17773 2.03613 5.31641 2.20605 4.49609 2.5459C3.67578 2.88574 2.94336 3.37793 2.29883 4.02246C1.66602 4.65527 1.17969 5.38184 0.839844 6.20215C0.5 7.02246 0.330078 7.88379 0.330078 8.78613C0.330078 9.68848 0.5 10.5498 0.839844 11.3701C1.17969 12.1904 1.66602 12.9229 2.29883 13.5674C2.94336 14.2002 3.67578 14.6865 4.49609 15.0264C5.31641 15.3662 6.17773 15.5361 7.08008 15.5361C7.85352 15.5361 8.60059 15.4102 9.32129 15.1582C10.042 14.9062 10.7012 14.54 11.2988 14.0596L16.6426 19.8955C16.6895 19.9424 16.7422 19.9775 16.8008 20.001C16.8594 20.0244 16.918 20.0361 16.9766 20.0361C17.0352 20.0361 17.0908 20.0273 17.1436 20.0098C17.1963 19.9922 17.2402 19.96 17.2754 19.9131C17.3691 19.8311 17.4189 19.7285 17.4248 19.6055C17.4307 19.4824 17.3926 19.374 17.3105 19.2803ZM1.22656 8.78613C1.22656 7.97754 1.38184 7.21875 1.69238 6.50977C2.00293 5.80078 2.42188 5.18262 2.94922 4.65527C3.47656 4.12793 4.09473 3.70898 4.80371 3.39844C5.5127 3.08789 6.27148 2.93262 7.08008 2.93262C7.88867 2.93262 8.64746 3.08789 9.35645 3.39844C10.0654 3.70898 10.6836 4.12793 11.2109 4.65527C11.7383 5.18262 12.1572 5.80078 12.4678 6.50977C12.7783 7.21875 12.9336 7.97754 12.9336 8.78613C12.9336 9.59473 12.7783 10.3535 12.4678 11.0625C12.1572 11.7715 11.7383 12.3926 11.2109 12.9258C10.6836 13.459 10.0654 13.8779 9.35645 14.1826C8.64746 14.4873 7.88867 14.6396 7.08008 14.6396C6.27148 14.6396 5.5127 14.4873 4.80371 14.1826C4.09473 13.8779 3.47656 13.459 2.94922 12.9258C2.42188 12.3926 2.00293 11.7715 1.69238 11.0625C1.38184 10.3535 1.22656 9.59473 1.22656 8.78613Z" fill="#222222"/>
</g>
<defs>
<clipPath id="clip0_559_424">
<rect width="18" height="21.59" fill="white" transform="matrix(1 0 0 -1 0.330078 21.8398)"/>
</clipPath>
</defs>
</svg>
