<svg version="1.2" xmlns="http://www.w3.org/2000/svg" viewBox="0 0 38 28" width="38" height="28">
	<title>Vector Smart Object-ai</title>
	<defs>
		<clipPath clipPathUnits="userSpaceOnUse" id="cp1">
			<path d="m0-0.05h38v28.14h-38z"/>
		</clipPath>
	</defs>
	<style>
		.s0 { fill: #000000 } 
	</style>
	<g id="_Artboards_">
	</g>
	<g id="Layer 1">
		<g id="&lt;Group&gt;">
			<g id="&lt;Clip Group&gt;" clip-path="url(#cp1)">
				<path id="&lt;Compound Path&gt;" fill-rule="evenodd" class="s0" d="m21.5 27.2c0-0.4 0.3-0.7 0.7-0.7h12.4c0.5 0 1-0.2 1.3-0.6 0.4-0.3 0.6-0.8 0.6-1.3v-17.6h-35.1v17.6c0 0.5 0.2 1 0.6 1.3 0.3 0.4 0.8 0.6 1.3 0.6h13c0.4 0 0.7 0.3 0.7 0.7 0 0.4-0.3 0.8-0.7 0.8h-13c-0.9 0-1.8-0.4-2.4-1-0.6-0.6-1-1.5-1-2.4v-21.2c0-1 0.4-1.8 1-2.4 0.6-0.6 1.5-1 2.4-1h31.3c0.9 0 1.8 0.4 2.4 1 0.6 0.6 1 1.4 1 2.4v21.2c0 0.9-0.4 1.8-1 2.4-0.6 0.6-1.5 1-2.4 1h-12.4c-0.4 0-0.7-0.4-0.7-0.8zm13.1-25.7h-31.3c-0.5 0-1 0.2-1.3 0.5-0.4 0.4-0.6 0.8-0.6 1.4v2.1h35.1v-2.1c0-0.6-0.2-1-0.6-1.4-0.3-0.3-0.8-0.5-1.3-0.5zm-15.3 26.5c-0.5 0-0.8-0.4-0.8-0.8 0-0.4 0.3-0.7 0.8-0.7 0.4 0 0.7 0.3 0.7 0.7 0 0.4-0.3 0.8-0.7 0.8zm4.2-14.1q0.5 0.2 0.8 0.5c0.4 0.4 0.6 0.9 0.6 1.5v6.7c0 0.6-0.2 1.1-0.6 1.5-0.4 0.4-0.9 0.6-1.5 0.6h-7c-0.6 0-1.2-0.2-1.6-0.6-0.4-0.4-0.6-0.9-0.6-1.5v-6.7c0-0.6 0.2-1.1 0.6-1.5q0.4-0.3 0.8-0.5v-2.9c0-0.7 0.3-1.4 0.8-1.8 0.4-0.5 1.1-0.8 1.8-0.8h3.4c0.7 0 1.3 0.3 1.8 0.8 0.4 0.4 0.7 1.1 0.7 1.8v2.9zm-1.5-0.1v-2.8c0-0.3-0.1-0.6-0.3-0.8-0.2-0.2-0.5-0.3-0.7-0.3h-3.4c-0.3 0-0.6 0.1-0.8 0.3-0.2 0.2-0.3 0.5-0.3 0.8v2.8zm-6.3 1.5q-0.3 0-0.4 0.2-0.2 0.2-0.2 0.4v6.7q0 0.3 0.2 0.5 0.1 0.1 0.4 0.1h7q0.3 0 0.5-0.1 0.2-0.2 0.2-0.5v-6.7q0-0.2-0.2-0.4-0.2-0.2-0.5-0.2zm4.3 5.4c0 0.4-0.3 0.7-0.7 0.7-0.5 0-0.8-0.3-0.8-0.7v-2.9c0-0.4 0.3-0.7 0.8-0.7 0.4 0 0.7 0.3 0.7 0.7zm-16.3-16.5c-0.4 0-0.7-0.3-0.7-0.7 0-0.4 0.3-0.8 0.7-0.8h1.7c0.4 0 0.8 0.4 0.8 0.8 0 0.4-0.4 0.7-0.8 0.7zm8.8 0c-0.4 0-0.7-0.3-0.7-0.7 0-0.4 0.3-0.8 0.7-0.8h1.7c0.4 0 0.8 0.4 0.8 0.8 0 0.4-0.4 0.7-0.8 0.7zm-4.4 0c-0.4 0-0.7-0.3-0.7-0.7 0-0.4 0.3-0.8 0.7-0.8h1.7c0.4 0 0.8 0.4 0.8 0.8 0 0.4-0.4 0.7-0.8 0.7z"/>
			</g>
		</g>
	</g>
</svg>