<svg version="1.2" xmlns="http://www.w3.org/2000/svg" viewBox="0 0 38 38" width="38" height="38">
	<title>Vector Smart Object-ai</title>
	<defs>
		<clipPath clipPathUnits="userSpaceOnUse" id="cp1">
			<path d="m0-0.09h38v38.18h-38z"/>
		</clipPath>
	</defs>
	<style>
		.s0 { fill: #000000 } 
	</style>
	<g id="_Artboards_">
	</g>
	<g id="Layer 1">
		<g id="&lt;Group&gt;">
			<g id="&lt;Clip Group&gt;" clip-path="url(#cp1)">
				<path id="&lt;Compound Path&gt;" fill-rule="evenodd" class="s0" d="m23.7 36.4c-2.2 1.8-5.4 2-8.8 0.9-3.3-1.1-6.7-3.5-9.6-6.9q0 0 0-0.1c-2.9-3.4-4.6-7.2-5.1-10.7-0.6-3.5 0.2-6.7 2.5-8.6 0.5-0.4 1.4-0.3 2.3 0.2 0.7 0.4 1.5 1.1 2.2 2q0 0 0.1 0.1c0.7 0.8 1.4 2 2 3 0.6 1.3 0.9 2.5 0.3 3-0.7 0.6-1.1 1.4-1.2 2.2-0.1 0.9 0.2 1.8 0.8 2.5l3 3.7c0.6 0.7 1.4 1 2.3 1.1 0.8 0.1 1.7-0.1 2.4-0.7 0.6-0.5 1.7-0.1 2.9 0.8 1.5 1.2 3.5 3.2 4.2 5.1 0.4 1 0.3 1.8-0.2 2.3q0 0-0.1 0.1zm4.1-4.9c2.2-1.1 4.1-2.7 5.5-4.7 2-2.6 3.1-5.9 3.1-9.4 0-4.4-1.7-8.4-4.6-11.2-2.8-2.9-6.8-4.7-11.1-4.7-3.1 0-5.9 0.9-8.3 2.4-1.7 1-3.2 2.4-4.4 4-0.5 0.8-1.7-0.1-1.2-0.9 1.3-1.7 3-3.2 4.8-4.4 2.7-1.6 5.8-2.6 9.1-2.6 4.8 0 9.1 2 12.2 5.1 3.1 3.1 5.1 7.5 5.1 12.3 0 3.9-1.3 7.4-3.4 10.3-1.6 2.2-3.7 4-6.1 5.2-0.4 0.2-0.8 0-1-0.4-0.2-0.3-0.1-0.8 0.3-1zm-2.4 2.5c-0.4 0-0.7-0.3-0.7-0.7 0-0.4 0.3-0.7 0.7-0.7 0.4 0 0.8 0.3 0.8 0.7 0 0.4-0.4 0.7-0.8 0.7zm-19.5-23.3c-0.4 0-0.8-0.3-0.8-0.7 0-0.5 0.4-0.8 0.8-0.8 0.4 0 0.7 0.3 0.7 0.8 0 0.4-0.3 0.7-0.7 0.7zm25.1 10.8c0 0.4-0.3 0.8-0.7 0.8-0.4 0-0.8-0.4-0.8-0.8v-3.4h-3.9q-0.2 0-0.5-0.1c-0.3-0.3-0.3-0.8-0.1-1.1l4.6-5.6c0.2-0.2 0.4-0.3 0.7-0.3 0.4 0 0.7 0.4 0.7 0.8v4.8h0.9c0.5 0 0.8 0.4 0.8 0.8 0 0.4-0.3 0.7-0.8 0.7h-0.9zm-1.5-7.6l-2.3 2.8h2.3zm-11.7 1.6c-0.4 0-0.7-0.3-0.7-0.7 0-1.1 0.4-2 1-2.7 0.7-0.7 1.7-1.1 2.7-1.1 1 0 1.9 0.4 2.6 1.1 0.7 0.7 1.1 1.6 1.1 2.7 0 1-0.4 1.8-1.1 2.4-0.6 0.6-1.3 1-2.2 1.5-0.8 0.4-1.6 1.3-2.1 2h4.7c0.4 0 0.7 0.4 0.7 0.8 0 0.4-0.3 0.8-0.7 0.8h-6q-0.2 0-0.3-0.1c-0.4-0.2-0.6-0.7-0.4-1.1 0 0 1.5-2.8 3.4-3.8 0.8-0.4 1.5-0.7 1.9-1.2 0.4-0.3 0.6-0.7 0.6-1.3 0-0.6-0.2-1.2-0.6-1.6-0.4-0.4-1-0.7-1.6-0.7-0.6 0-1.2 0.3-1.6 0.7-0.4 0.4-0.6 1-0.6 1.6 0 0.4-0.4 0.7-0.8 0.7zm-2.4 20.4c2.9 0.9 5.6 0.8 7.4-0.7 0 0-0.1-0.3-0.2-0.7-0.6-1.6-2.4-3.4-3.8-4.4-0.6-0.5-1.1-0.8-1.1-0.7-1 0.8-2.1 1-3.4 0.9-1.2-0.1-2.4-0.6-3.2-1.7l-3.1-3.7c-0.9-1-1.2-2.3-1.1-3.5 0.1-1.2 0.6-2.3 1.6-3.2-0.4-1.3-2.1-3.6-2.4-4-0.7-0.7-1.3-1.3-1.9-1.7-0.3-0.2-0.5-0.3-0.6-0.3q0 0 0 0c-1.8 1.6-2.4 4.2-1.9 7.2 0.4 3.2 2.1 6.8 4.8 10 2.6 3.2 5.9 5.4 8.9 6.5z"/>
			</g>
		</g>
	</g>
</svg>