<svg width="23" height="40" viewBox="0 0 23 40" fill="none" xmlns="http://www.w3.org/2000/svg">
<g clip-path="url(#clip0_559_431)">
<path d="M11.4219 21.1348C10.5911 21.1348 9.81055 20.9772 9.08008 20.6621C8.34961 20.347 7.70866 19.9173 7.15723 19.373C6.60579 18.8288 6.17253 18.1878 5.85742 17.4502C5.54232 16.7126 5.38477 15.9284 5.38477 15.0977C5.38477 14.2669 5.54232 13.4827 5.85742 12.7451C6.17253 12.0075 6.60579 11.3665 7.15723 10.8223C7.70866 10.278 8.34961 9.84473 9.08008 9.52246C9.81055 9.2002 10.5911 9.03906 11.4219 9.03906C12.2669 9.03906 13.0547 9.2002 13.7852 9.52246C14.5156 9.84473 15.1566 10.278 15.708 10.8223C16.2594 11.3665 16.6927 12.0075 17.0078 12.7451C17.3229 13.4827 17.4805 14.2669 17.4805 15.0977C17.4805 15.9284 17.3229 16.7126 17.0078 17.4502C16.6927 18.1878 16.2594 18.8288 15.708 19.373C15.1566 19.9173 14.5156 20.347 13.7852 20.6621C13.0547 20.9772 12.2669 21.1348 11.4219 21.1348ZM11.4219 10.1348C10.7487 10.1348 10.1113 10.2673 9.50977 10.5322C8.9082 10.7972 8.38184 11.1517 7.93066 11.5957C7.47949 12.0397 7.125 12.5625 6.86719 13.1641C6.60938 13.7656 6.48047 14.4102 6.48047 15.0977C6.48047 15.7708 6.60938 16.4082 6.86719 17.0098C7.125 17.6113 7.47949 18.1377 7.93066 18.5889C8.38184 19.04 8.9082 19.3945 9.50977 19.6523C10.1113 19.9102 10.7487 20.0391 11.4219 20.0391C12.1094 20.0391 12.7539 19.9102 13.3555 19.6523C13.957 19.3945 14.4834 19.04 14.9346 18.5889C15.3857 18.1377 15.7402 17.6113 15.998 17.0098C16.2559 16.4082 16.3848 15.7708 16.3848 15.0977C16.3848 14.4102 16.2559 13.7656 15.998 13.1641C15.7402 12.5625 15.3857 12.0397 14.9346 11.5957C14.4834 11.1517 13.957 10.7972 13.3555 10.5322C12.7539 10.2673 12.1094 10.1348 11.4219 10.1348ZM20.2305 31.0391H2.63477C2.17643 31.0391 1.78613 30.8779 1.46387 30.5557C1.1416 30.2334 0.980469 29.8431 0.980469 29.3848C0.980469 29.3561 1.03776 28.9658 1.15234 28.2139C1.26693 27.4619 1.66081 26.6419 2.33398 25.7539C2.7207 25.2383 3.17904 24.7764 3.70898 24.3682C4.23893 23.96 4.83333 23.6126 5.49219 23.3262C6.29427 22.9681 7.19303 22.6995 8.18848 22.5205C9.18392 22.3415 10.2617 22.252 11.4219 22.252C12.5964 22.252 13.6813 22.3415 14.6768 22.5205C15.6722 22.6995 16.571 22.9681 17.373 23.3262C18.0319 23.6126 18.6263 23.96 19.1562 24.3682C19.6862 24.7764 20.1445 25.2383 20.5312 25.7539C21.2044 26.6419 21.5983 27.4619 21.7129 28.2139C21.8275 28.9658 21.8848 29.3561 21.8848 29.3848C21.8848 29.8431 21.7236 30.2334 21.4014 30.5557C21.0791 30.8779 20.6888 31.0391 20.2305 31.0391ZM11.4219 23.3477C10.4622 23.3477 9.57064 23.4121 8.74707 23.541C7.9235 23.6699 7.16439 23.8633 6.46973 24.1211C5.77506 24.3789 5.15918 24.694 4.62207 25.0664C4.08496 25.4388 3.62305 25.8757 3.23633 26.377C2.67773 27.1217 2.34473 27.8092 2.2373 28.4395C2.12988 29.0697 2.07617 29.3919 2.07617 29.4062C2.07617 29.5495 2.12988 29.6748 2.2373 29.7822C2.34473 29.8896 2.47721 29.9434 2.63477 29.9434H20.2305C20.388 29.9434 20.5205 29.8896 20.6279 29.7822C20.7354 29.6748 20.7891 29.5423 20.7891 29.3848C20.7891 29.3848 20.7354 29.0697 20.6279 28.4395C20.5205 27.8092 20.1803 27.1217 19.6074 26.377C19.235 25.8757 18.7767 25.4388 18.2324 25.0664C17.6882 24.694 17.0723 24.3789 16.3848 24.1211C15.6973 23.8633 14.9382 23.6699 14.1074 23.541C13.2767 23.4121 12.3815 23.3477 11.4219 23.3477Z" fill="#222222"/>
</g>
<defs>
<clipPath id="clip0_559_431">
<rect width="22" height="38.5" fill="white" transform="matrix(1 0 0 -1 0.980469 39.2998)"/>
</clipPath>
</defs>
</svg>
